# xmcd
#
# Track frame offsets: 
#        150
#        23697
#        39320
#        50815
#        64607
#        88102
#        105745
#        120127
#        138007
#        151892
#        168672
#        184050
#        207902
#
# Disc length: 3031 seconds
#
# Revision: 1
# Processed by: cddbd v1.5.2PL0 Copyright (c) Steve Scherf et al.
# Submitted via: ExactAudioCopyFreeDBPlugin 1.0
#
DISCID=a30bd50d
DTITLE=Marco Borsato - De waarheid
DYEAR=1996
DGENRE=Pop
TTITLE0=De Waarheid
TTITLE1=Je Zit Op Rozen
TTITLE2=Onbewoonbaar Verklaard
TTITLE3=Fijne Vent
TTITLE4=Oud en afgedankt
TTITLE5=Denk Aan Mij
TTITLE6=Wie
TTITLE7=Wereld Zonder Jou
TTITLE8=Door Jou
TTITLE9=Jij Hebt Mij Niet Nodig
TTITLE10=Ik Heb Genoeg Aan Jou
TTITLE11=Vreemde Handen
TTITLE12=Maskers Af
EXTD=
EXTT0=
EXTT1=
EXTT2=
EXTT3=
EXTT4=
EXTT5=
EXTT6=
EXTT7=
EXTT8=
EXTT9=
EXTT10=
EXTT11=
EXTT12=
PLAYORDER=
